<svg width="43" height="42" viewBox="0 0 43 42" fill="none" xmlns="http://www.w3.org/2000/svg">
<g clip-path="url(#clip0_1_3)">
<path d="M22 1H21C9.9543 1 1 9.9543 1 21C1 32.0457 9.9543 41 21 41H22C33.0457 41 42 32.0457 42 21C42 9.9543 33.0457 1 22 1Z" stroke="#18CFAB"/>
<path fill-rule="evenodd" clip-rule="evenodd" d="M27.9131 16.7282L26.0948 14.8913C25.2902 14.0809 23.9831 14.0759 23.1768 14.8826L21.1592 16.8926C20.3516 17.6988 20.3482 19.0103 21.1505 19.8207L22.3035 18.689C22.1868 18.3284 22.3304 17.9153 22.6159 17.6295L23.8995 16.3519C24.3061 15.9462 24.9584 15.9491 25.3595 16.3543L26.4513 17.4581C26.8528 17.8628 26.8511 18.5171 26.447 18.9232L25.1634 20.2024C24.8918 20.473 24.4461 20.6217 24.1002 20.5263L22.9709 21.6589C23.7745 22.4718 25.0803 22.4747 25.8889 21.6684L27.9039 19.6592C28.7141 18.8525 28.7167 17.5398 27.9131 16.7282ZM20.5261 24.0918C20.6219 24.4441 20.4686 24.8997 20.1909 25.1777L18.9923 26.3752C18.5807 26.7845 17.916 26.7833 17.5067 26.369L16.393 25.2475C15.9847 24.8349 15.9873 24.1633 16.3982 23.7547L17.598 22.5577C17.8903 22.2661 18.3104 22.1202 18.6771 22.2437L19.8335 21.0715C19.0149 20.2462 17.6825 20.2421 16.8606 21.0632L14.9152 23.0042C14.0923 23.8266 14.0884 25.1629 14.9065 25.9886L16.7582 27.8618C17.5759 28.6846 18.9072 28.6912 19.7311 27.8701L21.6765 25.9287C22.4985 25.1054 22.5024 23.7717 21.6855 22.9443L20.5261 24.0918ZM20.2579 23.5631C19.9801 23.8419 19.5343 23.841 19.2618 23.5581C18.9879 23.2743 18.9901 22.8204 19.2661 22.5399L22.5907 19.1611C22.8668 18.8823 23.3117 18.8831 23.5851 19.164C23.8605 19.4457 23.8588 19.9009 23.5817 20.183L20.2579 23.5631Z" fill="#1FDAB5"/>
</g>
<defs>
<clipPath id="clip0_1_3">
<rect width="43" height="42" fill="white"/>
</clipPath>
</defs>
</svg>
